<mxfile host="app.diagrams.net" modified="2023-01-18T03:17:04.535Z" agent="5.0 (Windows NT 10.0; Win64; x64) AppleWebKit/537.36 (KHTML, like Gecko) Chrome/107.0.0.0 Safari/537.36 Edg/107.0.1418.62" version="20.8.5" etag="qpvhEIj9q7fA60rKZzmP" type="github">
  <diagram id="dkkSzEqPSUe6sfAFwoXn" name="第 1 页">
    <mxGraphModel dx="880" dy="494" grid="1" gridSize="10" guides="1" tooltips="1" connect="1" arrows="1" fold="1" page="1" pageScale="1" pageWidth="827" pageHeight="1169" math="0" shadow="0">
      <root>
        <mxCell id="0" />
        <mxCell id="1" parent="0" />
        <mxCell id="loqbEO3SbJ-ndt2591DG-1" value="&lt;font style=&quot;font-size: 14px;&quot;&gt;组件管理&lt;/font&gt;" style="rounded=0;whiteSpace=wrap;html=1;fontSize=12;align=center;horizontal=1;verticalAlign=top;shadow=1;dashed=1;fontStyle=1" vertex="1" parent="1">
          <mxGeometry x="80.63" y="200" width="136.37" height="220" as="geometry" />
        </mxCell>
        <mxCell id="loqbEO3SbJ-ndt2591DG-2" value="&lt;font style=&quot;font-size: 11px&quot;&gt;组件查询&lt;/font&gt;" style="rounded=1;whiteSpace=wrap;html=1;fontSize=10;shadow=0;" vertex="1" parent="1">
          <mxGeometry x="100" y="240" width="95.12" height="20" as="geometry" />
        </mxCell>
        <mxCell id="loqbEO3SbJ-ndt2591DG-55" value="修改功能" style="rounded=1;whiteSpace=wrap;html=1;fontSize=10;fillColor=#fa6800;strokeColor=#C73500;shadow=0;fontColor=#000000;" vertex="1" parent="1">
          <mxGeometry x="680" y="160" width="60" height="20" as="geometry" />
        </mxCell>
        <mxCell id="loqbEO3SbJ-ndt2591DG-56" value="&lt;span style=&quot;font-size: 11px&quot;&gt;新增功能&lt;/span&gt;" style="rounded=1;whiteSpace=wrap;html=1;fontSize=10;shadow=0;fillColor=#e51400;strokeColor=#B20000;fontColor=#ffffff;" vertex="1" parent="1">
          <mxGeometry x="739.8199999999999" y="160" width="60" height="20" as="geometry" />
        </mxCell>
        <mxCell id="loqbEO3SbJ-ndt2591DG-59" value="&lt;font style=&quot;font-size: 11px&quot;&gt;组件新增&lt;/font&gt;" style="rounded=1;whiteSpace=wrap;html=1;fontSize=10;shadow=0;" vertex="1" parent="1">
          <mxGeometry x="100" y="270" width="95.12" height="20" as="geometry" />
        </mxCell>
        <mxCell id="loqbEO3SbJ-ndt2591DG-60" value="&lt;font style=&quot;font-size: 11px&quot;&gt;组件导入&lt;/font&gt;" style="rounded=1;whiteSpace=wrap;html=1;fontSize=10;shadow=0;" vertex="1" parent="1">
          <mxGeometry x="100" y="300" width="95.12" height="20" as="geometry" />
        </mxCell>
        <mxCell id="loqbEO3SbJ-ndt2591DG-61" value="&lt;font style=&quot;font-size: 11px&quot;&gt;组件导出&lt;/font&gt;" style="rounded=1;whiteSpace=wrap;html=1;fontSize=10;shadow=0;" vertex="1" parent="1">
          <mxGeometry x="100" y="330" width="95.12" height="20" as="geometry" />
        </mxCell>
        <mxCell id="loqbEO3SbJ-ndt2591DG-62" value="&lt;font style=&quot;font-size: 11px&quot;&gt;组件编辑&lt;/font&gt;" style="rounded=1;whiteSpace=wrap;html=1;fontSize=10;shadow=0;" vertex="1" parent="1">
          <mxGeometry x="100" y="360" width="95.12" height="20" as="geometry" />
        </mxCell>
        <mxCell id="loqbEO3SbJ-ndt2591DG-63" value="&lt;font style=&quot;font-size: 11px&quot;&gt;组件删除&lt;/font&gt;" style="rounded=1;whiteSpace=wrap;html=1;fontSize=10;shadow=0;" vertex="1" parent="1">
          <mxGeometry x="100" y="390" width="95.12" height="20" as="geometry" />
        </mxCell>
        <mxCell id="loqbEO3SbJ-ndt2591DG-64" value="&lt;font style=&quot;font-size: 14px;&quot;&gt;画布&lt;/font&gt;" style="rounded=0;whiteSpace=wrap;html=1;fontSize=12;align=center;horizontal=1;verticalAlign=top;shadow=1;dashed=1;fontStyle=1" vertex="1" parent="1">
          <mxGeometry x="240" y="200" width="136.37" height="300" as="geometry" />
        </mxCell>
        <mxCell id="loqbEO3SbJ-ndt2591DG-66" value="&lt;font style=&quot;font-size: 11px&quot;&gt;组件发布&lt;/font&gt;" style="rounded=1;whiteSpace=wrap;html=1;fontSize=10;shadow=0;" vertex="1" parent="1">
          <mxGeometry x="259.37" y="240" width="95.12" height="20" as="geometry" />
        </mxCell>
        <mxCell id="loqbEO3SbJ-ndt2591DG-67" value="&lt;font style=&quot;font-size: 11px&quot;&gt;节点复制&lt;/font&gt;" style="rounded=1;whiteSpace=wrap;html=1;fontSize=10;shadow=0;" vertex="1" parent="1">
          <mxGeometry x="259.37" y="270" width="95.12" height="20" as="geometry" />
        </mxCell>
        <mxCell id="loqbEO3SbJ-ndt2591DG-68" value="&lt;font style=&quot;font-size: 11px&quot;&gt;组件保存&lt;/font&gt;" style="rounded=1;whiteSpace=wrap;html=1;fontSize=10;shadow=0;" vertex="1" parent="1">
          <mxGeometry x="259.37" y="300" width="95.12" height="20" as="geometry" />
        </mxCell>
        <mxCell id="loqbEO3SbJ-ndt2591DG-69" value="&lt;font style=&quot;font-size: 11px&quot;&gt;组件校验&lt;/font&gt;" style="rounded=1;whiteSpace=wrap;html=1;fontSize=10;shadow=0;" vertex="1" parent="1">
          <mxGeometry x="259.37" y="330" width="95.12" height="20" as="geometry" />
        </mxCell>
        <mxCell id="loqbEO3SbJ-ndt2591DG-70" value="&lt;font style=&quot;font-size: 11px&quot;&gt;组件备份&lt;/font&gt;" style="rounded=1;whiteSpace=wrap;html=1;fontSize=10;shadow=0;" vertex="1" parent="1">
          <mxGeometry x="259.37" y="360" width="95.12" height="20" as="geometry" />
        </mxCell>
        <mxCell id="loqbEO3SbJ-ndt2591DG-71" value="&lt;font style=&quot;font-size: 11px&quot;&gt;画布操作回退&lt;/font&gt;" style="rounded=1;whiteSpace=wrap;html=1;fontSize=10;shadow=0;" vertex="1" parent="1">
          <mxGeometry x="260.62" y="390" width="95.12" height="20" as="geometry" />
        </mxCell>
        <mxCell id="loqbEO3SbJ-ndt2591DG-74" value="&lt;font style=&quot;font-size: 11px&quot;&gt;小地图&lt;/font&gt;" style="rounded=1;whiteSpace=wrap;html=1;fontSize=10;shadow=0;" vertex="1" parent="1">
          <mxGeometry x="260.63" y="420" width="95.12" height="20" as="geometry" />
        </mxCell>
        <mxCell id="loqbEO3SbJ-ndt2591DG-75" value="&lt;font style=&quot;font-size: 14px;&quot;&gt;基础节点&lt;/font&gt;" style="rounded=0;whiteSpace=wrap;html=1;fontSize=12;align=center;horizontal=1;verticalAlign=top;shadow=1;dashed=1;fontStyle=1" vertex="1" parent="1">
          <mxGeometry x="400" y="200" width="136.37" height="340" as="geometry" />
        </mxCell>
        <mxCell id="loqbEO3SbJ-ndt2591DG-76" value="&lt;font style=&quot;font-size: 11px&quot;&gt;组件初始化&lt;/font&gt;" style="rounded=1;whiteSpace=wrap;html=1;fontSize=10;shadow=0;" vertex="1" parent="1">
          <mxGeometry x="419.37" y="240" width="95.12" height="20" as="geometry" />
        </mxCell>
        <mxCell id="loqbEO3SbJ-ndt2591DG-77" value="&lt;font style=&quot;font-size: 11px&quot;&gt;服务&lt;/font&gt;" style="rounded=1;whiteSpace=wrap;html=1;fontSize=10;shadow=0;" vertex="1" parent="1">
          <mxGeometry x="419.37" y="270" width="95.12" height="20" as="geometry" />
        </mxCell>
        <mxCell id="loqbEO3SbJ-ndt2591DG-78" value="&lt;font style=&quot;font-size: 11px&quot;&gt;自定义环节&lt;/font&gt;" style="rounded=1;whiteSpace=wrap;html=1;fontSize=10;shadow=0;" vertex="1" parent="1">
          <mxGeometry x="419.37" y="300" width="95.12" height="20" as="geometry" />
        </mxCell>
        <mxCell id="loqbEO3SbJ-ndt2591DG-79" value="&lt;font style=&quot;font-size: 11px&quot;&gt;函数&lt;/font&gt;" style="rounded=1;whiteSpace=wrap;html=1;fontSize=10;shadow=0;" vertex="1" parent="1">
          <mxGeometry x="419.37" y="330" width="95.12" height="20" as="geometry" />
        </mxCell>
        <mxCell id="loqbEO3SbJ-ndt2591DG-80" value="&lt;font style=&quot;font-size: 11px&quot;&gt;文件上传下载&lt;/font&gt;" style="rounded=1;whiteSpace=wrap;html=1;fontSize=10;shadow=0;" vertex="1" parent="1">
          <mxGeometry x="419.37" y="360" width="95.12" height="20" as="geometry" />
        </mxCell>
        <mxCell id="loqbEO3SbJ-ndt2591DG-81" value="&lt;font style=&quot;font-size: 11px&quot;&gt;组件引用&lt;/font&gt;" style="rounded=1;whiteSpace=wrap;html=1;fontSize=10;shadow=0;" vertex="1" parent="1">
          <mxGeometry x="419.37" y="390" width="95.12" height="20" as="geometry" />
        </mxCell>
        <mxCell id="loqbEO3SbJ-ndt2591DG-82" value="&lt;font style=&quot;font-size: 11px&quot;&gt;封装JSON出参&lt;/font&gt;" style="rounded=1;whiteSpace=wrap;html=1;fontSize=10;shadow=0;" vertex="1" parent="1">
          <mxGeometry x="420.63" y="420" width="95.12" height="20" as="geometry" />
        </mxCell>
        <mxCell id="loqbEO3SbJ-ndt2591DG-83" value="&lt;font style=&quot;font-size: 11px&quot;&gt;封装XML出参&lt;/font&gt;" style="rounded=1;whiteSpace=wrap;html=1;fontSize=10;shadow=0;" vertex="1" parent="1">
          <mxGeometry x="420.63" y="450" width="95.12" height="20" as="geometry" />
        </mxCell>
        <mxCell id="loqbEO3SbJ-ndt2591DG-84" value="&lt;font style=&quot;font-size: 11px&quot;&gt;aviator脚本&lt;/font&gt;" style="rounded=1;whiteSpace=wrap;html=1;fontSize=10;shadow=0;" vertex="1" parent="1">
          <mxGeometry x="420.63" y="480" width="95.12" height="20" as="geometry" />
        </mxCell>
        <mxCell id="loqbEO3SbJ-ndt2591DG-85" value="&lt;font style=&quot;font-size: 11px&quot;&gt;HTTP请求&lt;/font&gt;" style="rounded=1;whiteSpace=wrap;html=1;fontSize=10;shadow=0;" vertex="1" parent="1">
          <mxGeometry x="420.63" y="510" width="95.12" height="20" as="geometry" />
        </mxCell>
        <mxCell id="loqbEO3SbJ-ndt2591DG-86" value="&lt;font style=&quot;font-size: 11px&quot;&gt;组件调试&lt;/font&gt;" style="rounded=1;whiteSpace=wrap;html=1;fontSize=10;shadow=0;" vertex="1" parent="1">
          <mxGeometry x="259.37" y="450" width="95.12" height="20" as="geometry" />
        </mxCell>
        <mxCell id="loqbEO3SbJ-ndt2591DG-87" value="&lt;font style=&quot;font-size: 14px;&quot;&gt;系统配置&lt;/font&gt;" style="rounded=0;whiteSpace=wrap;html=1;fontSize=12;align=center;horizontal=1;verticalAlign=top;shadow=1;dashed=1;fontStyle=1" vertex="1" parent="1">
          <mxGeometry x="550" y="200" width="136.37" height="340" as="geometry" />
        </mxCell>
        <mxCell id="loqbEO3SbJ-ndt2591DG-88" value="&lt;font style=&quot;font-size: 11px&quot;&gt;APPKEY配置&lt;/font&gt;" style="rounded=1;whiteSpace=wrap;html=1;fontSize=10;shadow=0;" vertex="1" parent="1">
          <mxGeometry x="569.37" y="240" width="95.12" height="20" as="geometry" />
        </mxCell>
        <mxCell id="loqbEO3SbJ-ndt2591DG-89" value="&lt;font style=&quot;font-size: 11px&quot;&gt;金库配置&lt;/font&gt;" style="rounded=1;whiteSpace=wrap;html=1;fontSize=10;shadow=0;" vertex="1" parent="1">
          <mxGeometry x="569.37" y="270" width="95.12" height="20" as="geometry" />
        </mxCell>
        <mxCell id="loqbEO3SbJ-ndt2591DG-90" value="&lt;font style=&quot;font-size: 11px&quot;&gt;错误码配置&lt;/font&gt;" style="rounded=1;whiteSpace=wrap;html=1;fontSize=10;shadow=0;" vertex="1" parent="1">
          <mxGeometry x="569.37" y="300" width="95.12" height="20" as="geometry" />
        </mxCell>
        <mxCell id="loqbEO3SbJ-ndt2591DG-91" value="&lt;font style=&quot;font-size: 11px&quot;&gt;服务地址配置&lt;/font&gt;" style="rounded=1;whiteSpace=wrap;html=1;fontSize=10;shadow=0;" vertex="1" parent="1">
          <mxGeometry x="569.37" y="330" width="95.12" height="20" as="geometry" />
        </mxCell>
        <mxCell id="loqbEO3SbJ-ndt2591DG-92" value="&lt;font style=&quot;font-size: 11px&quot;&gt;黑名单配置&lt;/font&gt;" style="rounded=1;whiteSpace=wrap;html=1;fontSize=10;shadow=0;" vertex="1" parent="1">
          <mxGeometry x="569.37" y="360" width="95.12" height="20" as="geometry" />
        </mxCell>
        <mxCell id="loqbEO3SbJ-ndt2591DG-93" value="&lt;font style=&quot;font-size: 11px&quot;&gt;引擎地址配置&lt;/font&gt;" style="rounded=1;whiteSpace=wrap;html=1;fontSize=10;shadow=0;" vertex="1" parent="1">
          <mxGeometry x="569.37" y="390" width="95.12" height="20" as="geometry" />
        </mxCell>
        <mxCell id="loqbEO3SbJ-ndt2591DG-94" value="&lt;font style=&quot;font-size: 11px&quot;&gt;文件配置&lt;/font&gt;" style="rounded=1;whiteSpace=wrap;html=1;fontSize=10;shadow=0;" vertex="1" parent="1">
          <mxGeometry x="570.63" y="420" width="95.12" height="20" as="geometry" />
        </mxCell>
        <mxCell id="loqbEO3SbJ-ndt2591DG-95" value="&lt;font style=&quot;font-size: 11px&quot;&gt;注册中心配置&lt;/font&gt;" style="rounded=1;whiteSpace=wrap;html=1;fontSize=10;shadow=0;" vertex="1" parent="1">
          <mxGeometry x="570.63" y="450" width="95.12" height="20" as="geometry" />
        </mxCell>
        <mxCell id="loqbEO3SbJ-ndt2591DG-96" value="&lt;font style=&quot;font-size: 11px&quot;&gt;aviator脚本&lt;/font&gt;" style="rounded=1;whiteSpace=wrap;html=1;fontSize=10;shadow=0;" vertex="1" parent="1">
          <mxGeometry x="570.63" y="480" width="95.12" height="20" as="geometry" />
        </mxCell>
        <mxCell id="loqbEO3SbJ-ndt2591DG-97" value="&lt;font style=&quot;font-size: 11px&quot;&gt;HTTP请求&lt;/font&gt;" style="rounded=1;whiteSpace=wrap;html=1;fontSize=10;shadow=0;" vertex="1" parent="1">
          <mxGeometry x="570.63" y="510" width="95.12" height="20" as="geometry" />
        </mxCell>
      </root>
    </mxGraphModel>
  </diagram>
</mxfile>
